<svg xmlns="http://www.w3.org/2000/svg" width="848.675" height="469.442" viewBox="0 0 848.675 469.442">
  <g id="Group_2" data-name="Group 2" transform="translate(0 0)">
    <path id="Path_2" data-name="Path 2" d="M612.366,682.319a207.533,207.533,0,0,1-40.54,1.96c-32.66-1.65-64.78-11.15-92.23-29.01-12.17-7.92-23.78-17.65-30.08-30.72-8.55-17.75-5.56-40.22,6.65-55.68a56.014,56.014,0,0,1,16.14-13.77c.92-.52,1.86-1.02,2.81-1.5a60.557,60.557,0,0,1,33.48-6.13c19.58,2.14,37.65,14.1,48.09,30.81,9.3,14.9,12.54,32.48,14.45,50.1.36,3.32.67,6.65.97,9.96a146.378,146.378,0,0,1-7.81,28.06,9.8,9.8,0,0,0-.44,1.36q3,6.51,5.71,13.14a11.557,11.557,0,0,0,5.53,1.4h37.19Z" transform="translate(-175.662 -215.279)" fill="#f2f2f2"/>
    <path id="Path_3" data-name="Path 3" d="M568.795,683.169a2.033,2.033,0,0,1-2.7-1.06c-.16-.38-.31-.76-.47-1.14q-2.16-5.25-4.53-10.4a316.784,316.784,0,0,0-88.17-114.1,1.478,1.478,0,0,1-.62-1.37,2.032,2.032,0,0,1,2.81-1.5,1.923,1.923,0,0,1,.42.26,317.514,317.514,0,0,1,44.26,43.95,322.508,322.508,0,0,1,34.91,51.66q4.065,7.5,7.72,15.21c.48,1.02.96,2.05,1.43,3.08q3,6.51,5.71,13.14c.03.07.06.15.09.22a1.48,1.48,0,0,1-.86,2.05Z" transform="translate(-175.662 -215.279)" fill="#fff"/>
    <circle id="Ellipse_1" data-name="Ellipse 1" cx="39" cy="39" r="39" transform="translate(221.503 258)" fill="#6c63ff"/>
    <path id="Path_4" data-name="Path 4" d="M432.3,527.156a4.045,4.045,0,0,1-2.434-.808l-.044-.033-9.165-7.017a4.072,4.072,0,0,1,4.953-6.464l5.937,4.552,14.029-18.3a4.072,4.072,0,0,1,5.709-.754l-.087.118.089-.117a4.077,4.077,0,0,1,.754,5.709l-16.5,21.52a4.073,4.073,0,0,1-3.24,1.589Z" transform="translate(-175.662 -215.279)" fill="#fff"/>
    <path id="Path_5" data-name="Path 5" d="M1023.15,684.721h-846.3a1.191,1.191,0,1,1,0-2.381h846.294a1.191,1.191,0,1,1,0,2.381Z" transform="translate(-175.662 -215.279)" fill="#3f3d56"/>
    <circle id="Ellipse_2" data-name="Ellipse 2" cx="28.94" cy="28.94" r="28.94" transform="translate(136.606 78.065)" fill="#2f2e41"/>
    <ellipse id="Ellipse_3" data-name="Ellipse 3" cx="11.975" cy="8.981" rx="11.975" ry="8.981" transform="translate(121.789 87.167) rotate(-45)" fill="#2f2e41"/>
    <ellipse id="Ellipse_4" data-name="Ellipse 4" cx="8.981" cy="11.975" rx="8.981" ry="11.975" transform="translate(170.156 81.064) rotate(-66.869)" fill="#2f2e41"/>
    <path id="Path_6" data-name="Path 6" d="M421.794,489.366a10.743,10.743,0,0,0-6.253-15.24l-41.816-88.459L354.6,399.08l47.119,82.735a10.8,10.8,0,0,0,20.078,7.551Z" transform="translate(-175.662 -215.279)" fill="#ffb8b8"/>
    <path id="Path_7" data-name="Path 7" d="M383.314,400.425l-22.208,9.931a4.817,4.817,0,0,1-6.6-3.1l-6.549-23.353a13.377,13.377,0,1,1,24.456-10.85l13,20.382a4.817,4.817,0,0,1-2.1,6.986Z" transform="translate(-175.662 -215.279)" fill="#ccc"/>
    <path id="Path_8" data-name="Path 8" d="M280.747,498.136a10.743,10.743,0,0,0,7.445-14.694l39.6-89.472-22.655-5.706-31.8,89.743a10.8,10.8,0,0,0,7.412,20.13Z" transform="translate(-175.662 -215.279)" fill="#ffb8b8"/>
    <path id="Path_9" data-name="Path 9" d="M94.289,445.033l11.52,4.194,21.661-42.438-17-6.19Z" fill="#ffb8b8"/>
    <path id="Path_10" data-name="Path 10" d="M264.972,662.263H303.5V677.15H279.859a14.887,14.887,0,0,1-14.887-14.887Z" transform="matrix(-0.94, -0.342, 0.342, -0.94, 146.535, 1180.966)" fill="#2f2e41"/>
    <path id="Path_11" data-name="Path 11" d="M297.2,635.89a4.773,4.773,0,0,1-2.044-.459l-13.239-6.271a4.8,4.8,0,0,1-2.469-5.99L316.812,519.7a4.817,4.817,0,0,1,8.661-.842L345.235,551.8a4.822,4.822,0,0,1,.052,4.868l-43.887,76.8A4.84,4.84,0,0,1,297.2,635.89Z" transform="translate(-175.662 -215.279)" fill="#2f2e41"/>
    <circle id="Ellipse_5" data-name="Ellipse 5" cx="24.561" cy="24.561" r="24.561" transform="translate(141.903 89.352)" fill="#ffb8b8"/>
    <path id="Path_12" data-name="Path 12" d="M376.873,440.862,333.385,428.9l-23.13-46.259a14.576,14.576,0,0,1,13.038-21.094h34.6a14.557,14.557,0,0,1,9.73,3.721c9.281,8.315,28.781,32.285,9.439,75.173Z" transform="translate(-175.662 -215.279)" fill="#ccc"/>
    <path id="Path_13" data-name="Path 13" d="M322.433,409.971,300.4,399.657a4.817,4.817,0,0,1-1.974-7.022l13.391-20.223a13.377,13.377,0,1,1,24.2,11.413l-6.924,23.163a4.817,4.817,0,0,1-6.657,2.982Z" transform="translate(-175.662 -215.279)" fill="#ccc"/>
    <path id="Path_14" data-name="Path 14" d="M173.428,456.629h12.259l5.833-47.288h-18.1Z" fill="#ffb8b8"/>
    <path id="Path_15" data-name="Path 15" d="M346.463,668.4h38.531v14.887H361.35A14.887,14.887,0,0,1,346.463,668.4Z" transform="translate(555.825 1136.4) rotate(179.997)" fill="#2f2e41"/>
    <path id="Path_16" data-name="Path 16" d="M353.719,653.888a4.791,4.791,0,0,1-4.7-3.814C345.5,633.47,327.2,548.423,312.91,504.615c-14.534-44.57,10.218-64.872,15.328-68.488a3.763,3.763,0,0,0,1.253-1.513l3.712-8.166a4.834,4.834,0,0,1,4.4-2.827h.03c27.829.166,37.184,8.939,39.914,12.7a4.761,4.761,0,0,1,.754,3.926L360.69,512.895a3.749,3.749,0,0,0-.073,1.377l17.518,131.9a4.818,4.818,0,0,1-4.223,5.42l-19.629,2.264a4.92,4.92,0,0,1-.566.033Z" transform="translate(-175.662 -215.279)" fill="#2f2e41"/>
    <path id="Path_17" data-name="Path 17" d="M316.318,313.743a33.4,33.4,0,0,0,19.091,5.9,20.472,20.472,0,0,1-8.114,3.338,67.359,67.359,0,0,0,27.514.155,17.808,17.808,0,0,0,5.76-1.978,7.289,7.289,0,0,0,3.555-4.755c.6-3.449-2.083-6.582-4.876-8.693a35.968,35.968,0,0,0-30.224-6.039c-3.376.873-6.759,2.347-8.952,5.059s-2.843,6.892-.753,9.684Z" transform="translate(-175.662 -215.279)" fill="#2f2e41"/>
    <circle id="Ellipse_6" data-name="Ellipse 6" cx="13" cy="13" r="13" transform="translate(578.503 179)" fill="#6c63ff"/>
    <path id="Path_18" data-name="Path 18" d="M765.877,412.238a1.348,1.348,0,0,1-.811-.269l-.015-.011L762,409.619a1.357,1.357,0,1,1,1.651-2.155l1.979,1.517,4.676-6.1a1.357,1.357,0,0,1,1.9-.251l-.029.039.03-.039a1.359,1.359,0,0,1,.251,1.9l-5.5,7.173a1.358,1.358,0,0,1-1.08.53Z" transform="translate(-175.662 -215.279)" fill="#fff"/>
    <circle id="Ellipse_7" data-name="Ellipse 7" cx="13" cy="13" r="13" transform="translate(578.503 217)" fill="#6c63ff"/>
    <path id="Path_19" data-name="Path 19" d="M765.877,450.238a1.348,1.348,0,0,1-.811-.269l-.015-.011L762,447.619a1.357,1.357,0,1,1,1.651-2.155l1.979,1.517,4.676-6.1a1.357,1.357,0,0,1,1.9-.251l-.029.039.03-.039a1.359,1.359,0,0,1,.251,1.9l-5.5,7.173a1.358,1.358,0,0,1-1.08.53Z" transform="translate(-175.662 -215.279)" fill="#fff"/>
    <circle id="Ellipse_8" data-name="Ellipse 8" cx="13" cy="13" r="13" transform="translate(585.503 261)" fill="#6c63ff"/>
    <path id="Path_20" data-name="Path 20" d="M772.877,494.238a1.348,1.348,0,0,1-.811-.269l-.015-.011L769,491.619a1.357,1.357,0,0,1,1.651-2.155l1.979,1.517,4.676-6.1a1.357,1.357,0,0,1,1.9-.251l-.029.039.03-.039a1.359,1.359,0,0,1,.251,1.9l-5.5,7.173a1.358,1.358,0,0,1-1.08.53Z" transform="translate(-175.662 -215.279)" fill="#fff"/>
    <path id="Path_21" data-name="Path 21" d="M899.521,597.818c-.135,0-.22,0-.249-.005l-16.14,0v-2.38h16.2c.375.013,8.027.229,15.076-8.325,10.506-12.749,19.133-44.31.573-122.264-24.957-104.821-4.142-197.424,5.966-232.372a11.6,11.6,0,0,0-11.164-14.816H668.747a11.656,11.656,0,0,0-9.4,4.784c-4.282,5.89-10.158,17.205-13.835,37.665l-2.342-.421c3.757-20.9,9.824-32.552,14.252-38.643a14.041,14.041,0,0,1,11.324-5.765H909.781a13.984,13.984,0,0,1,13.451,17.857c-10.056,34.767-30.763,126.89-5.937,231.16,18.821,79.051,9.773,111.295-1.131,124.425C908.971,597.38,901.047,597.818,899.521,597.818Z" transform="translate(-175.662 -215.279)" fill="#e6e6e6"/>
    <path id="Path_22" data-name="Path 22" d="M856.092,641.248c-.135,0-.22,0-.249-.005l-16.14,0v-2.38h16.2c.377.012,8.027.229,15.076-8.325,10.506-12.749,19.133-44.31.573-122.264-24.957-104.821-4.142-197.424,5.966-232.372a11.6,11.6,0,0,0-11.164-14.816H625.318a11.656,11.656,0,0,0-9.4,4.784c-4.282,5.89-10.158,17.205-13.835,37.665l-2.342-.421c3.757-20.9,9.824-32.552,14.252-38.643a14.041,14.041,0,0,1,11.324-5.765H866.352A13.984,13.984,0,0,1,879.8,276.565c-10.056,34.767-30.763,126.89-5.937,231.16,18.821,79.051,9.773,111.3-1.131,124.425C865.542,640.809,857.617,641.248,856.092,641.248Z" transform="translate(-175.662 -215.279)" fill="#ccc"/>
    <path id="Path_23" data-name="Path 23" d="M830.435,551.159c-24.83-104.27-4.12-196.4,5.94-231.16a13.994,13.994,0,0,0-13.45-17.86H581.886a14.031,14.031,0,0,0-11.32,5.76c-9.73,13.38-29.92,57.75-7.37,180.52,12.06,65.68,11.88,110.46,7.94,139.96-2.21,16.61-5.62,28.37-8.71,36.3l-.33.84a13.641,13.641,0,0,0-1,5.05,13.835,13.835,0,0,0,4.53,10.4,13.242,13.242,0,0,0,3.17,2.2,13.415,13.415,0,0,0,3.03,1.11,13.676,13.676,0,0,0,3.27.39H812.415c.03,0,.11.01.25.01,1.52,0,9.45-.44,16.64-9.1C840.205,662.449,849.255,630.209,830.435,551.159Zm-2.89,122.81c-7.05,8.56-14.7,8.34-15.07,8.33H575.1a11.636,11.636,0,0,1-9.63-5.11,11.367,11.367,0,0,1-1.61-9.43,9.806,9.806,0,0,1,.44-1.36,146.378,146.378,0,0,0,7.81-28.06c5.64-30.75,6.69-78.2-6.57-150.35-22.38-121.86-2.59-165.56,6.95-178.69a11.681,11.681,0,0,1,9.4-4.78H822.925a11.6,11.6,0,0,1,11.16,14.81c-10.11,34.95-30.92,127.56-5.96,232.38,18.56,77.95,9.93,109.51-.58,122.26Z" transform="translate(-175.662 -215.279)" fill="#3f3d56"/>
    <path id="Path_24" data-name="Path 24" d="M715.925,415.679H591.739a9.519,9.519,0,0,1,0-19.038H715.925a9.519,9.519,0,0,1,0,19.038Z" transform="translate(-175.662 -215.279)" fill="#ccc"/>
    <path id="Path_25" data-name="Path 25" d="M715.925,456.679H591.739a9.519,9.519,0,0,1,0-19.038H715.925a9.519,9.519,0,0,1,0,19.038Z" transform="translate(-175.662 -215.279)" fill="#ccc"/>
    <path id="Path_26" data-name="Path 26" d="M725.925,498.679H601.739a9.519,9.519,0,0,1,0-19.038H725.925a9.519,9.519,0,1,1,0,19.038Z" transform="translate(-175.662 -215.279)" fill="#ccc"/>
    <path id="Path_27" data-name="Path 27" d="M732.925,542.679H608.739a9.519,9.519,0,0,1,0-19.038H732.925a9.519,9.519,0,0,1,0,19.038Z" transform="translate(-175.662 -215.279)" fill="#ccc"/>
    <path id="Path_28" data-name="Path 28" d="M732.977,341.769H643.738a9.519,9.519,0,0,1,0-19.038h89.239a9.519,9.519,0,0,1,0,19.038Z" transform="translate(-175.662 -215.279)" fill="#6c63ff"/>
    <circle id="Ellipse_9" data-name="Ellipse 9" cx="13" cy="13" r="13" transform="translate(593.503 304.882)" fill="#ccc"/>
    <path id="Path_29" data-name="Path 29" d="M738.925,585.679H614.739a9.519,9.519,0,0,1,0-19.038H738.925a9.519,9.519,0,0,1,0,19.038Z" transform="translate(-175.662 -215.279)" fill="#ccc"/>
    <circle id="Ellipse_10" data-name="Ellipse 10" cx="13" cy="13" r="13" transform="translate(599.503 347.882)" fill="#ccc"/>
  </g>
</svg>
